<svg width="400px" height="400px" viewBox="0 -3.86 63.623 63.623" version="1.1" enable-background="new 0 0 856 412" y="0px" x="0px" fill="#000000" xmlns="http://www.w3.org/2000/svg"><g id="SVGRepo_bgCarrier" stroke-width="0"/><g id="SVGRepo_tracerCarrier" stroke-linecap="round" stroke-linejoin="round"/><g id="SVGRepo_iconCarrier"><path fill="#e41431" d="M16 54.5c-0.7 0 -1.25 -0.55 -1.25 -1.25V21.95l-3.5 2.95c-0.05 0.05 -0.1 0.05 -0.1 0.1 -0.5 0.3 -1.05 0.5 -1.6 0.5 -1 0 -1.9 -0.5 -2.45 -1.3L1.75 16.15c-0.9 -1.35 -0.5 -3.15 0.85 -4.05L17.45 1.75c0.1 -0.05 0.2 -0.15 0.35 -0.15 0.05 0 1.4 -0.45 3.3 -0.5h1.55c0.35 0 0.7 0.15 0.9 0.4 0.25 0.25 0.35 0.6 0.3 0.95 0 0.05 0 0.15 -0.05 0.2 0.1 3.75 4.05 7.25 8.25 7.25s8.15 -3.5 8.25 -7.25c0 -0.05 0 -0.15 -0.05 -0.2 -0.05 -0.35 0.1 -0.7 0.3 -0.95s0.55 -0.4 0.9 -0.4H44.5c1.2 0 2.15 0.55 2.25 0.6 0.05 0 0.05 0.05 0.1 0.05l14.35 10.35c1.3 0.85 1.7 2.7 0.8 4.05l-5.35 7.6c-0.5 0.8 -1.45 1.3 -2.45 1.3 -0.6 0 -1.15 -0.15 -1.6 -0.5 -0.05 0 -0.05 -0.05 -0.1 -0.1l-3.2 -2.65 -0.1 31.45c0 0.7 -0.55 1.25 -1.25 1.25H16z"/><path fill="#c6001c" d="M21.1 1.25c-1.9 0.05 -3.25 0.5 -3.3 0.5 -0.15 0 -0.25 0.1 -0.35 0.15l-1.5 1.045v25.5h-1.2v25.05c0 0.5 0.55 1 1.25 1h31.95c0.7 0 1.25 -0.5 1.25 -1l0.05 -25.1h-1.3V2.695l-1.1 -0.8c-0.05 0 -0.05 -0.05 -0.1 -0.05 -0.1 -0.05 -1.05 -0.6 -2.25 -0.6h-3.05c-0.35 0 -0.7 0.15 -0.9 0.4s-0.35 0.6 -0.3 0.95c0.05 0.05 0.05 0.15 0.05 0.2 -0.1 3.75 -4.05 7.25 -8.25 7.25s-8.15 -3.5 -8.25 -7.25c0.05 -0.05 0.05 -0.15 0.05 -0.2 0.05 -0.35 -0.05 -0.7 -0.3 -0.95 -0.2 -0.25 -0.55 -0.4 -0.9 -0.4h-1.55z"/><path x="58.261" y="19.404" width="10.725" height="88.998" style="fill: rgb(23, 131, 88); stroke: rgb(23, 131, 88);" d="M29.131 9.702H34.493V54.201H29.131V9.702z"/><path d="M44.55 2.5c0.9 0 1.55 0.45 1.55 0.45l14.35 10.3c0.8 0.5 1 1.55 0.45 2.35l-5.35 7.55c-0.3 0.5 -0.85 0.75 -1.4 0.75 -0.3 0 -0.65 -0.1 -0.95 -0.3l-5.25 -4.3 -0.1 34.1H16v-34l-5.6 4.7c-0.3 0.2 -0.6 0.3 -0.95 0.3 -0.55 0 -1.1 -0.25 -1.4 -0.75L2.75 15.6c-0.5 -0.8 -0.3 -1.8 0.45 -2.35L18.05 2.9s1.2 -0.4 2.9 -0.45H22.5v0.2c0 4.5 4.55 8.65 9.5 8.65s9.5 -4.15 9.5 -8.65v-0.2H44.55c-0.05 0.05 0 0.05 0 0.05m0 -2.5s-0.05 0 0 0H41.5c-0.7 0 -1.35 0.3 -1.85 0.8 -0.45 0.5 -0.7 1.2 -0.65 1.9v0.2c-0.15 3.05 -3.55 5.95 -7 5.95S25.15 5.95 25 2.9v-0.2c0.05 -0.7 -0.15 -1.4 -0.65 -1.9C23.9 0.3 23.2 0 22.5 0h-1.6c-2 0.05 -3.45 0.5 -3.65 0.55 -0.25 0.1 -0.45 0.2 -0.65 0.35L1.85 11.2C-0.05 12.5 -0.55 15.05 0.7 17l5.35 8.05c0.8 1.15 2.1 1.85 3.5 1.85 0.8 0 1.6 -0.25 2.3 -0.7 0.1 -0.05 0.15 -0.1 0.25 -0.15l1.45 -1.25v28.6c0 1.4 1.1 2.5 2.5 2.5h31.9c1.4 0 2.5 -1.1 2.5 -2.5l0.05 -28.85 1.15 0.95c0.05 0.05 0.15 0.1 0.2 0.15 0.7 0.45 1.5 0.7 2.3 0.7 1.4 0 2.7 -0.7 3.45 -1.85l5.3 -7.5 0.05 -0.05c1.25 -1.9 0.75 -4.5 -1.15 -5.75l-14 -10.45c-0.05 -0.05 -0.1 -0.05 -0.15 -0.1 -0.15 -0.1 -1.3 -0.75 -2.8 -0.75z" style="fill: rgb(18, 18, 18);"/></g></svg>