<?xml version="1.0" encoding="utf-8"?>
<svg version="1.1" id="Layer_1" x="0px" y="0px" viewBox="-286 409.9 22 22" style="enable-background:new -286 409.9 22 22;" xmlns="http://www.w3.org/2000/svg">
  <style type="text/css">
	.st0{fill:#2F59BA;}
	.st1{fill:#E2E2E2;}
</style>
  <circle class="st0" cx="-275" cy="420.9" r="8" style="fill: rgb(23, 157, 51);" transform="matrix(1.065, 0, 0, 1.075, 17.875, -31.567499)"/>
  <rect x="-335.198" y="440.333" class="st0" width="3.5" height="17.668" style="fill: rgb(35, 31, 32);" transform="matrix(0.707107, 0.707107, -0.706612, 0.707601, 278.17038, 338.852325)"/>
  <rect x="-335.198" y="440.333" class="st0" width="3.5" height="17.668" style="fill: rgb(23, 157, 51);" transform="matrix(0.707107, 0.707107, -0.706612, 0.707601, 280.450195, 341.292419)"/>
  <rect x="-335.198" y="348.696" class="st0" width="3.5" height="13.991" style="fill: rgb(23, 157, 51);" transform="matrix(0.707107, 0.707107, -0.706612, 0.707601, 216.579132, 409.41507)"/>
  <rect x="-335.198" y="440.333" class="st0" width="3.5" height="17.668" style="fill: rgb(35, 31, 32);" transform="matrix(-0.707107, 0.707107, -0.707601, -0.706612, -192.952408, 974.07019)"/>
  <g>
    <path class="st1" d="M-275,409.9c-6.1,0-11,4.9-11,11c0,6.1,4.9,11,11,11s11-4.9,11-11C-264,414.8-268.9,409.9-275,409.9z M-275,428.9c-4.4,0-8-3.6-8-8c0-4.4,3.6-8,8-8s8,3.6,8,8C-267,425.3-270.6,428.9-275,428.9z" style="fill: rgb(35, 31, 32);"/>
  </g>
</svg>