<svg id="svg2" x="0px" y="0px" version="1.1" width="400px" height="400px" viewBox="0 0 63.623 55.9" enable-background="new 0 0 856 412" fill="#000000" xmlns="http://www.w3.org/2000/svg"><g id="SVGRepo_bgCarrier" stroke-width="0"/><g id="SVGRepo_tracerCarrier" stroke-linecap="round" stroke-linejoin="round"/><g id="SVGRepo_iconCarrier"><path d="M16 54.5c-0.7 0 -1.25 -0.55 -1.25 -1.25V21.95l-3.5 2.95c-0.05 0.05 -0.1 0.05 -0.1 0.1 -0.5 0.3 -1.05 0.5 -1.6 0.5 -1 0 -1.9 -0.5 -2.45 -1.3L1.75 16.15c-0.9 -1.35 -0.5 -3.15 0.85 -4.05L17.45 1.75c0.1 -0.05 0.2 -0.15 0.35 -0.15 0.05 0 1.4 -0.45 3.3 -0.5h1.55c0.35 0 0.7 0.15 0.9 0.4 0.25 0.25 0.35 0.6 0.3 0.95 0 0.05 0 0.15 -0.05 0.2 0.1 3.75 4.05 7.25 8.25 7.25s8.15 -3.5 8.25 -7.25c0 -0.05 0 -0.15 -0.05 -0.2 -0.05 -0.35 0.1 -0.7 0.3 -0.95 0.2 -0.25 0.55 -0.4 0.9 -0.4H44.5c1.2 0 2.15 0.55 2.25 0.6 0.05 0 0.05 0.05 0.1 0.05l14.35 10.35c1.3 0.85 1.7 2.7 0.8 4.05l-5.35 7.6c-0.5 0.8 -1.45 1.3 -2.45 1.3 -0.6 0 -1.15 -0.15 -1.6 -0.5 -0.05 0 -0.05 -0.05 -0.1 -0.1l-3.2 -2.65 -0.1 31.45c0 0.7 -0.55 1.25 -1.25 1.25H16Z" id="path6" style="fill-opacity: 1; fill: rgb(162, 39, 38);"/><path d="M22.35 1.25v53l6.5 0.5V9.65c-2.85 -1.2 -5 -3.85 -5.05 -6.6 0.05 -0.05 0.05 -0.15 0.05 -0.2 0.05 -0.35 -0.05 -0.7 -0.3 -0.95 -0.2 -0.25 -0.55 -0.4 -0.9 -0.4h-0.3zm19.1 0c-0.35 0 -0.7 0.15 -0.9 0.4 -0.2 0.25 -0.35 0.6 -0.3 0.95 0.05 0.05 0.05 0.15 0.05 0.2 -0.1 2.75 -2.25 5.4 -5.05 6.6V54.5h6.3V1.5l-0.1 -0.25zm6.5 1.47V4.15L62 14l-3.5 5.1 -10.55 -7.4V54.5c0.7 0 1.25 -0.5 1.25 -1l0.1 -31.55 3.2 2.65v0.1c0.5 0.35 1 0.5 1.5 0.5 1 0 2 -0.5 2.5 -1.3l5.5 -7.6c1 -1.35 0.5 -3.2 -1 -4.05L47.95 2.7Zm-32 0.23L2.6 12.25c-1.365 0.9 -1.765 2.7 -0.865 4.05l5.35 8.05c0.55 0.8 1.45 1.3 2.45 1.3 0.55 0 1.1 -0.2 1.6 -0.5 0 -0.05 0.05 -0.05 0.1 -0.1l3.5 -2.95V53.5c0 0.5 0.5 1 1.2 1V11.9l-10.8 7.55 -3.575 -5.05 14.4 -10.1 -0.05 -1.35Z" id="path8" style="fill:#ffffff"/><path d="M44.55 2.5c0.9 0 1.55 0.45 1.55 0.45l14.35 10.3c0.8 0.5 1 1.55 0.45 2.35l-5.35 7.55c-0.3 0.5 -0.85 0.75 -1.4 0.75 -0.3 0 -0.65 -0.1 -0.95 -0.3l-5.25 -4.3 -0.1 34.1H16v-34l-5.6 4.7c-0.3 0.2 -0.6 0.3 -0.95 0.3 -0.55 0 -1.1 -0.25 -1.4 -0.75L2.75 15.6c-0.5 -0.8 -0.3 -1.8 0.45 -2.35L18.05 2.9s1.2 -0.4 2.9 -0.45H22.5v0.2c0 4.5 4.55 8.65 9.5 8.65s9.5 -4.15 9.5 -8.65v-0.2H44.55c-0.05 0.05 0 0.05 0 0.05m0 -2.5s-0.05 0 0 0H41.5c-0.7 0 -1.35 0.3 -1.85 0.8 -0.45 0.5 -0.7 1.2 -0.65 1.9v0.2c-0.15 3.05 -3.55 5.95 -7 5.95S25.15 5.95 25 2.9v-0.2c0.05 -0.7 -0.15 -1.4 -0.65 -1.9C23.9 0.3 23.2 0 22.5 0h-1.6c-2 0.05 -3.45 0.5 -3.65 0.55 -0.25 0.1 -0.45 0.2 -0.65 0.35L1.85 11.2C-0.05 12.5 -0.55 15.05 0.7 17l5.35 8.05c0.8 1.15 2.1 1.85 3.5 1.85 0.8 0 1.6 -0.25 2.3 -0.7 0.1 -0.05 0.15 -0.1 0.25 -0.15l1.45 -1.25v28.6c0 1.4 1.1 2.5 2.5 2.5h31.9c1.4 0 2.5 -1.1 2.5 -2.5l0.05 -28.85 1.15 0.95c0.05 0.05 0.15 0.1 0.2 0.15 0.7 0.45 1.5 0.7 2.3 0.7 1.4 0 2.7 -0.7 3.45 -1.85l5.3 -7.5 0.05 -0.05c1.25 -1.9 0.75 -4.5 -1.15 -5.75l-14 -10.45c-0.05 -0.05 -0.1 -0.05 -0.15 -0.1 -0.15 -0.1 -1.3 -0.75 -2.8 -0.75Z" id="path10" style="fill: rgb(18, 18, 18);"/></g></svg>