<svg viewBox="0 -24.268 400 400" version="1.1" enable-background="new 0 0 856 412" y="0px" x="0px" fill="#000000" xmlns="http://www.w3.org/2000/svg" width="400" height="400"><g id="SVGRepo_bgCarrier" stroke-width="0"/><g id="SVGRepo_tracerCarrier" stroke-linecap="round" stroke-linejoin="round"/><g id="SVGRepo_iconCarrier"><g><path fill="#083072" d="M100.593 342.643c-4.401 0 -7.859 -3.458 -7.859 -7.859V138l-22.005 18.547c-0.314 0.314 -0.629 0.314 -0.629 0.629 -3.144 1.886 -6.601 3.144 -10.059 3.144 -6.287 0 -11.945 -3.144 -15.403 -8.173L11.002 101.536c-5.658 -8.487 -3.144 -19.804 5.344 -25.462L109.709 11.002c0.629 -0.314 1.257 -0.943 2.2 -0.943 0.314 0 8.802 -2.829 20.747 -3.144h9.745c2.2 0 4.401 0.943 5.658 2.515 1.572 1.572 2.2 3.772 1.886 5.973 0 0.314 0 0.943 -0.314 1.257 0.629 23.576 25.462 45.581 51.868 45.581s51.239 -22.005 51.868 -45.581c0 -0.314 0 -0.943 -0.314 -1.257 -0.314 -2.2 0.629 -4.401 1.886 -5.973s3.458 -2.515 5.658 -2.515H279.773c7.544 0 13.517 3.458 14.146 3.772 0.314 0 0.314 0.314 0.629 0.314l90.219 65.071c8.173 5.344 10.688 16.975 5.03 25.462l-33.636 47.781c-3.144 5.03 -9.116 8.173 -15.403 8.173 -3.772 0 -7.23 -0.943 -10.059 -3.144 -0.314 0 -0.314 -0.314 -0.629 -0.629l-20.119 -16.661 -0.629 197.727c0 4.401 -3.458 7.859 -7.859 7.859H100.593z"/><path fill="#9b0639" d="M140.515 7.859v333.213l40.866 3.144V60.67c-17.918 -7.544 -31.435 -24.205 -31.75 -41.494 0.314 -0.314 0.314 -0.943 0.314 -1.257 0.314 -2.2 -0.314 -4.401 -1.886 -5.973 -1.257 -1.572 -3.458 -2.515 -5.658 -2.515h-1.886zm120.082 0c-2.2 0 -4.401 0.943 -5.658 2.515s-2.2 3.772 -1.886 5.973c0.314 0.314 0.314 0.943 0.314 1.257 -0.629 17.289 -14.146 33.95 -31.75 41.494V342.643h39.608V9.431l-0.629 -1.572zm40.866 9.242V26.091L389.796 88.018l-22.005 32.064 -66.328 -46.524V342.643c4.401 0 7.859 -3.144 7.859 -6.287l0.629 -198.356 20.119 16.661v0.629c3.144 2.2 6.287 3.144 9.431 3.144 6.287 0 12.574 -3.144 15.718 -8.173l34.579 -47.781c6.287 -8.487 3.144 -20.119 -6.287 -25.462L301.463 16.975zm-201.185 1.446L16.346 77.016c-8.582 5.658 -11.097 16.975 -5.438 25.462l33.636 50.611c3.458 5.03 9.116 8.173 15.403 8.173 3.458 0 6.916 -1.257 10.059 -3.144 0 -0.314 0.314 -0.314 0.629 -0.629l22.005 -18.547V336.356c0 3.144 3.144 6.287 7.544 6.287V74.816l-67.9 47.467 -22.476 -31.75 90.533 -63.499 -0.314 -8.487z"/><path d="M280.087 15.718c5.658 0 9.745 2.829 9.745 2.829l90.219 64.756c5.03 3.144 6.287 9.745 2.829 14.775l-33.636 47.467c-1.886 3.144 -5.344 4.715 -8.802 4.715 -1.886 0 -4.087 -0.629 -5.973 -1.886l-33.007 -27.034 -0.629 214.388H100.593v-213.759l-35.207 29.549c-1.886 1.257 -3.772 1.886 -5.973 1.886 -3.458 0 -6.916 -1.572 -8.802 -4.715L17.289 98.078c-3.144 -5.03 -1.886 -11.317 2.829 -14.775L113.481 18.232s7.544 -2.515 18.232 -2.829H141.458v1.257c0 28.292 28.606 54.383 59.727 54.383s59.727 -26.091 59.727 -54.383v-1.257H280.087c-0.314 0.314 0 0.314 0 0.314m0 -15.718s-0.314 0 0 0H260.912c-4.401 0 -8.487 1.886 -11.631 5.03 -2.829 3.144 -4.401 7.544 -4.087 11.945v1.257c-0.943 19.175 -22.319 37.408 -44.009 37.408S158.119 37.408 157.176 18.232v-1.257c0.314 -4.401 -0.943 -8.802 -4.087 -11.945C150.26 1.886 145.859 0 141.458 0h-10.059c-12.574 0.314 -21.69 3.144 -22.948 3.458 -1.572 0.629 -2.829 1.257 -4.087 2.2L11.631 70.415C-0.314 78.588 -3.458 94.62 4.401 106.88l33.636 50.611c5.03 7.23 13.203 11.631 22.005 11.631 5.03 0 10.059 -1.572 14.46 -4.401 0.629 -0.314 0.943 -0.629 1.572 -0.943l9.116 -7.859v179.809c0 8.802 6.916 15.718 15.718 15.718h200.556c8.802 0 15.718 -6.916 15.718 -15.718l0.314 -181.381 7.23 5.973c0.314 0.314 0.943 0.629 1.257 0.943 4.401 2.829 9.431 4.401 14.46 4.401 8.802 0 16.975 -4.401 21.69 -11.631l33.321 -47.153 0.314 -0.314c7.859 -11.945 4.715 -28.292 -7.23 -36.15l-88.018 -65.7c-0.314 -0.314 -0.629 -0.314 -0.943 -0.629 -0.943 -0.629 -8.173 -4.715 -17.604 -4.715z" style="fill: rgb(18, 18, 18);"/></g></g></svg>