<?xml version="1.0" encoding="utf-8"?>
<svg version="1.1" id="Layer_1" x="0px" y="0px" viewBox="-286 409.9 22 22" style="enable-background:new -286 409.9 22 22;" xmlns="http://www.w3.org/2000/svg">
  <style type="text/css">
	.st0{fill:#B82E22;}
	.st1{fill:#FFFFFF;}
	.st2{fill:#243B72;}
	.st3{fill:#2E59BA;}
	.st4{fill:#E2E2E2;}
</style>
  <circle class="st0" cx="-275" cy="420.9" r="8"/>
  <circle class="st2" cx="-275" cy="420.9" r="8"/>
  <path class="st2" d="M -275 429.22 C -279.554 429.22 -283.28 425.467 -283.28 420.88 C -283.28 416.293 -279.554 412.54 -275 412.54 L -275 429.22 Z" style="fill: rgb(10, 63, 134);"/>
  <path class="st3" d="M -275 412.66 C -270.402 412.66 -266.64 416.368 -266.64 420.9 C -266.64 425.432 -270.402 429.14 -275 429.14 L -275 412.66 Z" style="fill: rgb(10, 63, 134);"/>
  <g transform="matrix(1, 0, 0, 1, 0, 0.000006)">
    <path class="st4" d="M-275,409.9c-6.1,0-11,4.9-11,11c0,6.1,4.9,11,11,11s11-4.9,11-11C-264,414.8-268.9,409.9-275,409.9z M-275,428.9c-4.4,0-8-3.6-8-8c0-4.4,3.6-8,8-8s8,3.6,8,8C-267,425.3-270.6,428.9-275,428.9z" style="fill: rgb(42, 83, 165);"/>
  </g>
  <rect x="-323.794" y="483.511" width="7" height="7" style="fill: rgb(255, 255, 255); stroke: rgb(255, 255, 255);" transform="matrix(0.707107, 0.707107, -0.707107, 0.707107, 295.851013, 303.013245)"/>
  <rect x="-231.282" y="345.365" width="5" height="5" style="stroke: rgb(0, 0, 0); fill: rgb(255, 255, 255);" transform="matrix(0.707107, 0.707107, -0.707107, 0.707107, 132.751129, 336.695587)"/>
</svg>