<?xml version="1.0" encoding="utf-8"?>
<svg version="1.1" id="Layer_1" x="0px" y="0px" viewBox="-286 409.9 22 22" style="enable-background:new -286 409.9 22 22;" xmlns="http://www.w3.org/2000/svg">
  <style type="text/css">
	.st0{fill:#FFFFFF;}
	.st1{fill:#B82E22;}
	.st2{fill:#DF3536;}
	.st3{clip-path:url(#SVGID_2_);fill:#FFFFFF;}
	.st4{clip-path:url(#SVGID_4_);fill:#FFFFFF;}
	.st5{fill:#E2E2E2;}
</style>
  <circle class="st1" cx="-275" cy="420.9" r="8" style="transform-box: fill-box; transform-origin: 50% 50%;" transform="matrix(0, 1, -0.999975, 0, 0.049419, -0.049454)"/>
  <circle class="st0" cx="-275" cy="420.9" r="8" style="transform-box: fill-box; transform-origin: 50% 50%;" transform="matrix(0, 1, -0.999975, 0, 0.049419, -0.049454)"/>
  <circle class="st2" cx="275" cy="-420.9" r="8" style="transform-box: fill-box; transform-origin: 50% 50%; fill: rgb(239, 51, 64);" transform="matrix(-1, 0, 0, -1.000025, -549.950512, 841.750406)"/>
  <rect x="-272.375" y="412.415" class="st0" width="2.844" height="16.548" style="transform-box: fill-box; transform-origin: 50% 50%; fill: rgb(0, 151, 57);" transform="matrix(0, 1, -1, 0, -3.791835, 4.212023)"/>
  <rect x="-269.748" y="414.193" class="st0" width="2.844" height="13.836" style="transform-box: fill-box; transform-origin: 50% 50%; fill: rgb(0, 151, 57);" transform="matrix(0, 1, -1, 0, -6.840818, 6.41704)"/>
  <rect x="-278.014" y="411.555" class="st0" width="6.02" height="18.68" style="transform-box: fill-box; transform-origin: 50% 50%; fill: rgb(255, 209, 0);" transform="matrix(0, 1, -1, 0, 0.053191, -0.045039)"/>
  <g transform="matrix(1, 0, 0, 1, 0, 0.000006)">
    <path class="st5" d="M-275,409.9c-6.1,0-11,4.9-11,11c0,6.1,4.9,11,11,11s11-4.9,11-11C-264,414.8-268.9,409.9-275,409.9z M-275,428.9c-4.4,0-8-3.6-8-8c0-4.4,3.6-8,8-8s8,3.6,8,8C-267,425.3-270.6,428.9-275,428.9z"/>
  </g>
  <circle class="st2" cx="-275" cy="420.9" r="2" style="transform-box: fill-box; transform-origin: 50% 50%; fill: rgb(0, 0, 0);" transform="matrix(0, 1, -0.999975, 0, 0.049419, -0.049454)"/>
</svg>