<?xml version="1.0" encoding="utf-8"?>
<svg version="1.1" id="Layer_1" x="0px" y="0px" viewBox="-286 409.9 22 22" style="enable-background:new -286 409.9 22 22;" xmlns="http://www.w3.org/2000/svg">
  <style type="text/css">
	.st0{fill:#B82E22;}
	.st1{fill:#FFFFFF;}
	.st2{fill:#243B72;}
	.st3{fill:#2E59BA;}
	.st4{fill:#E2E2E2;}
</style>
  <circle class="st0" cx="-275" cy="420.9" r="8"/>
  <circle class="st2" cx="-275" cy="420.9" r="8"/>
  <path class="st2" d="M -270.665 425.275 C -275.282 425.275 -279.059 421.417 -279.059 416.703 C -279.059 411.989 -275.282 408.131 -270.665 408.131 L -270.665 425.275 Z" style="fill: rgb(255, 255, 255); transform-box: fill-box; transform-origin: 50% 50%;" transform="matrix(0, 1.000013, -0.999987, 0, -0.000001, 0)"/>
  <path class="st3" d="M -279.139 416.723 C -274.478 416.723 -270.665 420.509 -270.665 425.137 C -270.665 429.765 -274.478 433.551 -279.139 433.551 L -279.139 416.723 Z" style="fill: rgb(255, 255, 255); transform-box: fill-box; transform-origin: 50% 50%;" transform="matrix(0, 1.000013, -0.999987, 0, -0.000001, 0)"/>
  <g transform="matrix(1, 0, 0, 1, 0, 0.000006)">
    <path class="st4" d="M-275,409.9c-6.1,0-11,4.9-11,11c0,6.1,4.9,11,11,11s11-4.9,11-11C-264,414.8-268.9,409.9-275,409.9z M-275,428.9c-4.4,0-8-3.6-8-8c0-4.4,3.6-8,8-8s8,3.6,8,8C-267,425.3-270.6,428.9-275,428.9z" style=""/>
  </g>
  <circle class="st2" cx="-275" cy="420.9" r="3" style="fill: rgb(188, 0, 45);"/>
</svg>