<?xml version="1.0" encoding="utf-8"?>
<svg version="1.1" id="Layer_1" x="0px" y="0px" viewBox="-286 409.9 22 22" style="enable-background:new -286 409.9 22 22;" xmlns="http://www.w3.org/2000/svg">
  <style type="text/css">
	.st0{fill:#B82E22;}
	.st1{fill:#FFFFFF;}
	.st2{fill:#243B72;}
	.st3{fill:#2E59BA;}
	.st4{fill:#E2E2E2;}
</style>
  <circle class="st0" cx="-275" cy="420.9" r="8" style="transform-box: fill-box; transform-origin: 50% 50%;" transform="matrix(0, -1.000012, 0.999987, 0, -0.00002, 0.000049)"/>
  <circle class="st2" cx="-275" cy="420.9" r="8" style="transform-box: fill-box; transform-origin: 50% 50%;" transform="matrix(0, -1.000012, 0.999987, 0, -0.00002, 0.000049)"/>
  <path class="st2" d="M -275 428.901 C -279.4 428.901 -283 425.3 -283 420.901 C -283 416.501 -279.4 412.9 -275 412.9 L -275 428.901 Z" style="fill: rgb(255, 255, 255); transform-origin: -275.07px 416.901px;"/>
  <path class="st3" d="M -275 412.899 C -270.6 412.9 -267.001 416.5 -267 420.899 C -267 425.299 -270.6 428.9 -275 428.901 L -275 412.899 Z" style="transform-origin: -274.93px 424.899px; fill: rgb(192, 27, 34);"/>
  <g transform="matrix(1, 0, 0, 1, 0, 0.000006)">
    <path class="st4" d="M-275,409.9c-6.1,0-11,4.9-11,11c0,6.1,4.9,11,11,11s11-4.9,11-11C-264,414.8-268.9,409.9-275,409.9z M-275,428.9c-4.4,0-8-3.6-8-8c0-4.4,3.6-8,8-8s8,3.6,8,8C-267,425.3-270.6,428.9-275,428.9z" style=""/>
  </g>
</svg>